<?xml version="1.0" encoding="UTF-8"?>
<svg version="1.1" viewBox="0 0 2048 1414" width="601" height="415" xmlns="http://www.w3.org/2000/svg">
<path transform="translate(81,49)" d="m0 0h159l14 5 12 7 6 8 3 8 2 14 1 525 3 6 3 2h12l15-5 20-9 38-17 30-11 41-18 21-9 39-15 40-18 19-8 27-9 45-20 19-8 26-9 29-12 23-10 23-9 23-8 21-10 10-3h19l11 4 10 8 9 9 3 7 1 5v69l7-1 27-7 28-10 16-7 4-3v-8l-4-30v-41l4-24 4-15 5-14 8-16 10-18 10-15 8-10 12-12 12-9 11-9 15-9 21-10 15-4 33-6 14-2 17-1h21l23 2 29 6 15 4 6-1 12-5 15-7 24-8 28-6 24-2h20l23 2 26 5 25 7 23 10 16 8 16 12 13 12 11 11 10 14 13 21 7 14 7 24 3 22 1 12v28l-3 31-4 21-8 24-8 16-9 17-11 18-13 16-11 12-19 19-11 9-13 10-19 12-9 6 2 4 18 18 4 5 8 7 10 10 9 11 13 17 12 17 15 23 8 16 11 29 6 23 3 15 2 22v28l-3 34-3 15-8 22-7 19-6 15-6 10-10 13-10 14-9 10-7 8-7 7-10 8-14 12-11 8-17 8-16 9-15 7-22 8-21 5-20 3-15 1h-53l-30-3-23-6-25-9-9-4-12-3v2l-16 1-6 3v5l6 3 32 5 21 4 20 3 8 3 4 11 3 18v16l-3 16-5 13-6 14-6 9-8 10-7 5-6 1-13-5-22-11-17-10-19-9-11-4h-8l-6 7-1 5 4 8 8 10 7 8 11 11 7 8 13 15 9 10 4 7-2 9-8 16-7 11-10 11-12 9-16 8-16 5-15 3h-17l-5-4-8-14-7-16-6-16-12-27-4-6-6-2-9 1-10 5-3 3v13l6 59 1 18v14l-5 2-23 4-14 1h-11l-20-2-22-5-14-6-13-10-4-4 1-9 8-26 12-46 2-6v-8l-5-3-6 1-10 8-17 16-7 8-20 20-8 7-7 5h-10l-14-4-13-7-14-12-5-5-7-8-7-14-5-15-1-5v-17l6-7 10-6 9-7 12-11 11-9 17-11 5-5 5-6 1-2-1-9-4-8v-2l-16-2-69-3-10-1-7-6-7-11-4-9-2-14 1-19 3-10 6-7 8-4 24-9 27-10 21-8 14-4 1-1v-15l-4-11-7-8-8-3h-7l-11 3-17 10-10 7-13 9-13 6-8 2h-15l-11-3-11-8-6-9-3-8-3-12v-7l4-13 5-9 10-11 11-16 9-13 8-13-1-7-4-6-7-6-7-3h-9l-6 7-16 36-13 27-8 14-6 5-10 3-6 1h-16l-16-4-19-10-12-11-2-4-7-46-5-25-1-3-7-2h-16l-16 8-4 6v7l5 15 9 19 6 22 1 5v9l-4 15-4 8-8 7-12 6-13 3-14-1-9-4-13-8-8-8-8-7-14-12-9-6-2-1h-10l-10 5-8 9-5 12-1 3v7l5 4 25 12 19 10 15 7 6 4 3 5 4 22v22l-5 22-5 10-6 8-5 4-4 1h-26l-138-2-138-1-26-1-1-1-1-11v-1027l1-13 5-12 8-9 14-7zm83 31-74 1-5 3-2 4v803l-1 168v33l3 5 2 1 27 1 145 1h103l6-3 3-6 1-8v-13l-3-7-11-8-28-12-21-8-9-6-4-9-2-9v-22l5-16 9-13 9-10 13-10 12-5 15-3h8l13 4 11 8 17 17 10 7 12 8 8 5 5-1 5-6v-8l-6-19-6-17-11-23-1-8 4-10 12-17 9-10 14-7 13-3h30l16 4 11 6 4 8 5 31 4 34 3 10 7 8 17 5 4-1 7-8 8-18 9-21 9-19 10-19 3-4v-2l9-3h24l12 3 19 10 10 8 6 5 6 10 5 12 1 10-4 6-10 16-10 13-8 10-8 9-13 24 2 5 3 2 8-1 16-8 30-20 12-7 9-3h13l16 4 11 7 10 11 7 10 5 8 4 12 1 7v17l-4 17-3 5-10 5-16 6-21 6-24 9-19 7-5 4-1 3v10l2 3 11 2 72 4 10 4 10 9 8 12 3 9 1 9v17l-2 10-4 6-5 5-12 10-11 8-13 10-20 16-6 8-1 7 6 10 8 9 10 7 4 2 5-1 16-16 8-7 15-15 7-8 14-14 6-3h18l16 4 10 4 8 9 8 13 1 8-8 27-6 25-6 24 1 5 10 5 15 3 17 1 4-1 1-3-1-30-3-37-1-9v-12l6-9 10-9 14-7 17-5h18l15 3 5 4 8 16 16 33 9 20 3 7 1 1 9-1 12-5 13-7 8-9 3-5-1-6-8-11-11-12-12-13-8-8-9-11-8-8-4-7v-9l3-11 8-16 7-11 8-7 10-5 9-3 10 2 12 5 23 12 16 9 16 8 5 3h5l6-12 3-11 2-12-1-9-4-3-23-5-24-4-19-2-9-4-5-3-6-10-6-16-2-2-7-1-35-1-22-2-27-6-16-5-26-9-13-7-11-8-12-9-13-11-15-15-11-14-10-13-8-20-6-16-5-21-4-28v-33l4-27 7-28 12-33 8-15 18-27 14-19 13-15 11-12 9-8 7-8 10-10 22-18 15-12 18-13 8-7 7-4 1-4-6-8-10-14-10-11-5-5-9-11-8-13-6-12-8-14-6-9-4-1-30 12-25 9-4 2-17 4-17 6-25 10-33 13-21 8-27 9-13 6-32 13-14 6-9 3-14 4-29 12-42 18-30 10-6 1h-10l-14-7-5-6-3-8v-18l7-57v-12l-10 3-24 11-15 6-24 9-22 9-29 13-21 9-8 3-15 5-34 15-12 5-10 5-14 5-5 1h-15l-14-5-8-6-6-8-5-15-2-13v-365l-1-157-3-7-5-3zm1164 169-24 4-20 6-27 12-20 10-19 12-10 9-8 7-8 8-9 11-7 11-8 16-4 9-6 22-4 25-1 17v17l2 21 7 32 6 16 10 20 14 21 9 14 7 9 11 12 5 5 9 10 5 11v7l-5 9-10 8-14 10-10 7-12 9-14 12-14 14-8 7-21 21-7 8-16 21-18 27-17 35-8 19-4 14-5 24-1 16v27l2 23 6 23 8 19 10 19 8 12 9 11 14 15 8 7 24 16 22 12 11 5 28 7 6 1 49 3h15l41-3 22-3 17-5 23-10 24-14 22-15 8-8 2-1v-2h2l7-8 8-8 9-11 8-13 9-15 10-21 7-21 5-22 2-15 1-13v-30l-3-25-6-22-8-19-12-25-8-15-13-18-11-14-15-16-27-27-8-7-13-12-6-9-1-2v-8l7-8 30-19 12-7 13-10 11-9 24-24 14-19 15-25 8-16 6-20 4-21 2-20v-40l-2-18-5-21-6-15-6-11-13-16-12-14-10-9-13-8-16-9-13-6-24-7-22-4-17-2zm-214 41-16 4-12 5-16 11-17 14-10 16-8 14-7 16-4 21-1 15 2 21 5 19 7 19 9 16 8 16 9 12 7 7 11 14 10 14 13 12 7 8 8 8 8 10 5 6 7 4h6l10-5 9-7 4-5-3-10-9-15-11-19-8-20-6-20-5-27-1-11v-37l2-21 6-26 7-20 10-21 15-24 2-4v-3l-20-6-7-1zm-297 157-21 7-24 11-15 6-13 4-28 11-27 12-25 10-21 7-28 12-26 11-13 7-3 4-9 74v10l7-1 36-12 26-11 21-9 20-8 24-8 36-15 26-11 18-7 27-9 14-6 4-5 1-4v-66l-2-9-3-5zm242 213-8 4-10 9-11 9-13 12-10 9-7 8-12 13-10 13-4 4-6 12-13 22-8 16-9 25-3 13-3 23-1 11v39l3 25 4 16 7 16 8 12 13 17 9 12 16 12 15 11 8 6 16 8 13 4 25 4 14 3 6 3-2-4-12-14-11-14-10-15-13-27-8-24-4-18-3-21v-38l5-27 7-25 6-16 10-24 9-17 8-12 13-19 18-27 7-8v-2l-11-9-7-7-7-8-11-10-8-4zm29 391m35 28m1 1 5 5 4 2 3-1-10-6z" fill="#020BDA"/>
<path transform="translate(1332,220)" d="m0 0h20l23 2 26 5 25 7 23 10 16 8 16 12 13 12 11 11 10 14 13 21 7 14 7 24 3 22 1 12v28l-3 31-4 21-8 24-8 16-9 17-11 18-13 16-11 12-19 19-11 9-13 10-19 12-9 6 2 4 18 18 4 5 8 7 10 10 9 11 13 17 12 17 15 23 8 16 11 29 6 23 3 15 2 22v28l-3 34-3 15-8 22-7 19-6 15-6 10-10 13-10 14-9 10-7 8-7 7-10 8-14 12-11 8-17 8-16 9-15 7-22 8-21 5-20 3-15 1h-53l-30-3-23-6-25-9-9-4-12-3-13-7-16-10-13-10-10-9-2-5-13-15-11-14-10-15-13-27-8-24-4-18-3-21v-38l5-27 7-25 6-16 10-24 9-17 8-12 13-19 18-27 8-10 5-3 10-10 7-9 8-8 16-12 4-2v-2l8-7 11-10 8-7 8-5 6-4 1-5-10-14-14-15-7-7v-2h-2l-1-6-4-9-7-12-11-19-8-20-6-20-5-27-1-11v-37l2-21 6-26 7-20 10-21 15-24 4-9 8-8 11-9 12-11 13-10 10-7 13-4 21-10 24-8 28-6zm-4 29-24 4-20 6-27 12-20 10-19 12-10 9-8 7-8 8-9 11-7 11-8 16-4 9-6 22-4 25-1 17v17l2 21 7 32 6 16 10 20 14 21 9 14 7 9 11 12 5 5 9 10 5 11v7l-5 9-10 8-14 10-10 7-12 9-14 12-14 14-8 7-21 21-7 8-16 21-18 27-17 35-8 19-4 14-5 24-1 16v27l2 23 6 23 8 19 10 19 8 12 9 11 14 15 8 7 24 16 22 12 11 5 28 7 6 1 49 3h15l41-3 22-3 17-5 23-10 24-14 22-15 8-8 2-1v-2h2l7-8 8-8 9-11 8-13 9-15 10-21 7-21 5-22 2-15 1-13v-30l-3-25-6-22-8-19-12-25-8-15-13-18-11-14-15-16-27-27-8-7-13-12-6-9-1-2v-8l7-8 30-19 12-7 13-10 11-9 24-24 14-19 15-25 8-16 6-20 4-21 2-20v-40l-2-18-5-21-6-15-6-11-13-16-12-14-10-9-13-8-16-9-13-6-24-7-22-4-17-2z" fill="#FCC719"/>
<path transform="translate(1260,647)" d="m0 0h12l8 7 11 9 14 12 8 7 16 16 11 9 12 12 11 14 9 9 9 11 10 14 18 27 12 21 7 16 6 33 1 17v14l-2 25-5 27-6 16-12 21-7 10-10 13-12 13-13 11-14 9-12 6-19 7-21 5-7 1h-22l-16-3-25-7-21-8-8-3-11-8-13-11-5-5v-2l-3-1v-2l-4-2-7-8-10-11-9-13-8-14-4-10-6-25-3-16-1-15v-33l2-17 6-28 6-21 6-15 10-19 14-25 7-11 7-10 10-11 5-4 7-8 13-12 16-12 11-7 7-7 11-7zm3 32-11 7-9 8 2 4 11 11 10 15 11 18 17 35 8 22 6 24 2 13 1 12v30l-3 24-5 23-10 30-14 29-7 14-10 11-8 10-4 3-4 2 6 3 19 3h26l16-3 25-11 16-10 19-19 10-13 8-13 6-16 5-16 4-19 1-9v-26l-3-20-10-30-5-10-13-20-14-19-10-13-11-13-11-11h-2l-2-4h-2l-1-3h-2l-2-4-23-23-8-7-10-9-9-7-4-3zm-88 96-10 19-11 33-5 23-1 10v32l3 26 5 18 10 25 6 8 18 18 2-2 12-24 7-16 6-20 2-10 1-12v-27l-2-18-6-21-10-25-6-12-12-17-7-8z" fill="#FDC719"/>
<path transform="translate(1318,278)" d="m0 0h26l17 3 17 5 15 8 14 11 12 11 9 10 9 15 9 17 7 21 4 24 1 20-1 25-4 26-5 16-7 16-11 20-7 14-11 12-10 11-7 8-9 10-8 7-17 11-10 7-10 1-8-4-12-11-24-24-9-11-10-11-9-11-14-19-10-13-12-25-8-14-5-10-7-25-2-19v-13l3-21 5-17 7-16 6-11 8-11 9-10 9-9 15-10 12-6 15-4 11-3zm4 28-14 4-3 2 1 4 6 10 9 32 3 17 2 18v37l-3 22-10 40-6 15-6 9-3 7 12 16 11 12 19 19 6 4 5-1 8-7 13-12 11-9 9-11 15-24 8-14 6-14 5-16 3-22v-40l-3-17-5-15-7-14-14-19-11-12-8-6-14-7-16-6-5-1z" fill="#FDC71A"/>
<path transform="translate(1242,696)" d="m0 0 4 2 11 11 10 15 11 18 17 35 8 22 6 24 2 13 1 12v30l-3 24-5 23-10 30-14 29-7 14-10 11-9 11-4 3-7-1-18-8-19-10-5-4-8-10-2-5 12-24 7-16 6-20 2-10 1-12v-27l-2-18-6-21-10-25-6-12-12-17-7-8 4-10 11-18 11-15 7-9 16-16 10-7z" fill="#020BDA"/>
<path transform="translate(1538,917)" d="m0 0h16l20 1 2 1 3 14 5 44 4 28 7 41 11 64 3 11-1 1h-38l-2-2-4-25-2-17h-54l-5 12-8 20-5 8-2 2-4 1h-35l10-23 18-45 11-24 9-20 10-23 10-26 5-12 6-15 7-13zm10 48-3 5-9 27-7 17-9 26-2 5v4l2 1h14l20-1 4-4-1-25-6-52z" fill="#020BDA"/>
<path transform="translate(1302,313)" d="m0 0h3l8 13 9 32 3 17 2 18v37l-3 22-10 40-6 15-6 9-3 5-5-2-10-11-16-28-9-14-11-23-5-17-1-23 2-25 5-16 9-16 9-12 13-12 18-8z" fill="#020BDA"/>
<path transform="translate(1803,988)" d="m0 0h16l16 4 13 8 10 10 8 15 4 17v19l-3 15-7 16-7 11-7 8-14 8-14 6-10 2h-14l-12-3-10-5-12-8-7-7-8-14-4-11-1-7v-18l3-14 5-12 7-12 9-10 15-11 13-5zm2 30-11 6-9 10-6 10-3 11v17l4 10 9 9 10 4h11l8-6 9-10 5-11 1-5v-25l-5-10-8-7-8-3z" fill="#020BDA"/>
<path transform="translate(1695,988)" d="m0 0h14l11 4 9 8 5 10 2 10v20l-3 31-6 42-3 7-2 2h-27l-3-2-1-3v-8l4-30 3-35v-18l-4-7-5-2-8 1-9 6-6 5-5 7-3 14-7 55-3 15-3 2h-29l-2-2v-9l6-45 6-60 3-16h31l3 5 1 8 18-10 9-4z" fill="#020BDA"/>
<path transform="translate(1913,988)" d="m0 0h15l16 4 10 5 4 4v12l-2 14-2 1-21-7-8-2h-7l-3 4v6l7 8 6 7 7 6 7 8 7 10 4 10 1 10-2 10-5 10-5 6-10 6-8 4-8 2h-19l-12-3-12-6-4-4v-13l4-14 9 3 14 5 5 1h8l5-3 3-5-1-4-29-29-8-13-2-5v-10l3-12 4-8 10-11 8-4z" fill="#020BDA"/>
<path transform="translate(1669,1150)" d="m0 0 9 1 10 5 6 8 3 10 1 22-2 24-4 13-8 16-6 8-8 6-9 3-8-1-8-5-6-7-5-12-2-10v-18l3-16 5-17 8-16 6-7 8-5zm-3 21-4 5-3 10-5 25-1 8v14l3 8 3 3 6-1 5-8 4-13 3-19 1-21-2-7-4-4z" fill="#020BDA"/>
<path transform="translate(1319,1151)" d="m0 0 12 1 8 3 7 7 4 8 2 7 1 13-4 16-12 23-6 9-13 22-5 5h-16l-1-3 10-19 10-16 1-4h-9l-8-2-8-7-5-9-1-4v-15l4-14 6-10 7-6 10-4zm-2 20-7 8-4 9 1 7 6 6h7l7-5 4-6v-10l-5-8-2-1z" fill="#020BDA"/>
<path transform="translate(1467,1153)" d="m0 0h17l-1 4-17 34-1 4h10l10 4 5 5 4 6 1 4v18l-3 10-7 10-8 8-8 4-3 1h-14l-10-4-7-7-4-8-1-4v-26l3-10 12-19 13-22 7-11zm-7 63-7 6-4 9 2 9 3 3 3 1h7l6-5 4-10-1-8-5-5z" fill="#020BDA"/>
<path transform="translate(1385,1151)" d="m0 0h8l11 3 9 6 4 6 2 6v17l-4 8-5 6-6 4 8 14 2 5v11l-5 12-8 9-8 5-10 3h-8l-14-3-6-3v-14l2-7 9 3 6 1h9l7-3 4-5 1-2v-6l-4-6-3-2-12-1-4-4 1-15 2-4h17l6-4 2-4v-6l-4-8-4-2h-7l-15 5h-4v-12l3-7 7-4z" fill="#020BDA"/>
<path transform="translate(1583,1151)" d="m0 0h15l11 4 5 4 5 9 2 6v11l-3 12-7 13-9 13-10 14-2 5 27 1v7l-3 11-2 2-7 1h-40l-10-1 3-7 10-16 11-14 6-12 10-21 2-8-1-7-5-5-2-1h-6l-11 7h-4v-15l5-8z" fill="#020BDA"/>
<path transform="translate(1822,1151)" d="m0 0h9l7 2-3 24-5 41v3l9 3-1 9-2 2-9 1-2 19-3 7-3 2h-7l-6-2v-11l2-15-34-1-3-7 2-10 5-10 9-11 9-10 9-12 7-11 4-7zm-11 38-9 10-9 11-8 11 1 2h11l13-1 1-3 2-30z" fill="#020BDA"/>
<path transform="translate(1735,1150)" d="m0 0 11 2 10 6 6 9 2 8v13l-4 12-13 24-10 14-2 4 23 1 2 2v7l-3 10-2 2h-41l-13-1-1-2 9-15 18-24 10-19 6-17-1-7-6-7-5-1-11 6-7 3-1-1v-14l5-8 9-5z" fill="#020BDA"/>
<path transform="translate(1663,926)" d="m0 0 11 1 13 4 15 8 3-1 7-9 6-3h9l1 1v14l-3 11-4 8-7 6-6 2h-8l-13-4-15-7h-7l-5 5-4 5-3 1h-9l-1-1v-12l4-16 6-8 6-4z" fill="#020BDA"/>
<path transform="translate(1244,1153)" d="m0 0h13l6 2v8l-10 74-3 21-3 5h-14l-2-1v-14l7-51 5-42z" fill="#020BDA"/>
<path transform="translate(1508,1218)" d="m0 0h25l15 1 1 3-4 12-3 3h-37l-1-1 1-13z" fill="#020BDA"/>
</svg>
